<svg id="visual" viewBox="0 0 900 600" width="900" height="600" xmlns="http://www.w3.org/2000/svg" xmlns:xlink="http://www.w3.org/1999/xlink" version="1.1"><rect x="0" y="0" width="900" height="600" fill="#ffffff"></rect><path d="M0 329L90 336L180 413L270 320L360 397L450 429L540 374L630 324L720 402L810 423L900 429L900 601L810 601L720 601L630 601L540 601L450 601L360 601L270 601L180 601L90 601L0 601Z" fill="#757575"></path><path d="M0 387L90 442L180 343L270 389L360 338L450 404L540 429L630 391L720 372L810 414L900 402L900 601L810 601L720 601L630 601L540 601L450 601L360 601L270 601L180 601L90 601L0 601Z" fill="#696969"></path><path d="M0 388L90 401L180 417L270 465L360 387L450 391L540 396L630 384L720 410L810 443L900 416L900 601L810 601L720 601L630 601L540 601L450 601L360 601L270 601L180 601L90 601L0 601Z" fill="#5d5d5d"></path><path d="M0 447L90 395L180 419L270 456L360 472L450 416L540 464L630 424L720 410L810 414L900 453L900 601L810 601L720 601L630 601L540 601L450 601L360 601L270 601L180 601L90 601L0 601Z" fill="#515151"></path><path d="M0 421L90 459L180 484L270 418L360 486L450 455L540 447L630 454L720 416L810 419L900 481L900 601L810 601L720 601L630 601L540 601L450 601L360 601L270 601L180 601L90 601L0 601Z" fill="#454545"></path><path d="M0 440L90 449L180 483L270 444L360 445L450 458L540 511L630 512L720 493L810 439L900 481L900 601L810 601L720 601L630 601L540 601L450 601L360 601L270 601L180 601L90 601L0 601Z" fill="#3a3a3a"></path><path d="M0 458L90 464L180 528L270 521L360 514L450 508L540 482L630 491L720 478L810 478L900 486L900 601L810 601L720 601L630 601L540 601L450 601L360 601L270 601L180 601L90 601L0 601Z" fill="#2f2f2f"></path><path d="M0 501L90 523L180 519L270 533L360 518L450 485L540 505L630 520L720 515L810 503L900 484L900 601L810 601L720 601L630 601L540 601L450 601L360 601L270 601L180 601L90 601L0 601Z" fill="#252525"></path><path d="M0 527L90 549L180 506L270 555L360 513L450 539L540 506L630 521L720 533L810 537L900 546L900 601L810 601L720 601L630 601L540 601L450 601L360 601L270 601L180 601L90 601L0 601Z" fill="#1b1b1b"></path><path d="M0 558L90 566L180 537L270 538L360 555L450 569L540 548L630 541L720 542L810 561L900 546L900 601L810 601L720 601L630 601L540 601L450 601L360 601L270 601L180 601L90 601L0 601Z" fill="#111111"></path><path d="M0 557L90 587L180 592L270 567L360 572L450 576L540 569L630 583L720 594L810 565L900 587L900 601L810 601L720 601L630 601L540 601L450 601L360 601L270 601L180 601L90 601L0 601Z" fill="#000000"></path></svg>