<svg id="visual" viewBox="0 0 900 600" width="900" height="600" xmlns="http://www.w3.org/2000/svg" xmlns:xlink="http://www.w3.org/1999/xlink" version="1.1"><path d="M0 181L150 175L300 199L450 235L600 187L750 79L900 109L900 0L750 0L600 0L450 0L300 0L150 0L0 0Z" fill="#ffffff"></path><path d="M0 301L150 343L300 265L450 307L600 355L750 289L900 271L900 107L750 77L600 185L450 233L300 197L150 173L0 179Z" fill="#d0d0d0"></path><path d="M0 325L150 367L300 289L450 373L600 397L750 319L900 307L900 269L750 287L600 353L450 305L300 263L150 341L0 299Z" fill="#a2a2a2"></path><path d="M0 379L150 415L300 325L450 433L600 433L750 403L900 385L900 305L750 317L600 395L450 371L300 287L150 365L0 323Z" fill="#777777"></path><path d="M0 493L150 469L300 463L450 493L600 499L750 517L900 481L900 383L750 401L600 431L450 431L300 323L150 413L0 377Z" fill="#4e4e4e"></path><path d="M0 559L150 541L300 523L450 547L600 571L750 559L900 553L900 479L750 515L600 497L450 491L300 461L150 467L0 491Z" fill="#292929"></path><path d="M0 601L150 601L300 601L450 601L600 601L750 601L900 601L900 551L750 557L600 569L450 545L300 521L150 539L0 557Z" fill="#000000"></path></svg>