<svg id="visual" viewBox="0 0 900 600" width="900" height="600" xmlns="http://www.w3.org/2000/svg" xmlns:xlink="http://www.w3.org/1999/xlink" version="1.1"><path d="M0 31L10 34C20 37 40 43 60 45C80 47 100 45 120 43C140 41 160 39 180 39C200 39 220 41 240 40C260 39 280 35 300 36C320 37 340 43 360 44C380 45 400 41 420 38C440 35 460 33 480 35C500 37 520 43 540 44C560 45 580 41 600 39C620 37 640 37 660 37C680 37 700 37 720 37C740 37 760 37 780 37C800 37 820 37 840 36C860 35 880 33 890 32L900 31L900 0L890 0C880 0 860 0 840 0C820 0 800 0 780 0C760 0 740 0 720 0C700 0 680 0 660 0C640 0 620 0 600 0C580 0 560 0 540 0C520 0 500 0 480 0C460 0 440 0 420 0C400 0 380 0 360 0C340 0 320 0 300 0C280 0 260 0 240 0C220 0 200 0 180 0C160 0 140 0 120 0C100 0 80 0 60 0C40 0 20 0 10 0L0 0Z" fill="#565656"></path><path d="M0 115L10 116C20 117 40 119 60 119C80 119 100 117 120 114C140 111 160 107 180 109C200 111 220 119 240 119C260 119 280 111 300 111C320 111 340 119 360 118C380 117 400 107 420 101C440 95 460 93 480 98C500 103 520 115 540 114C560 113 580 99 600 92C620 85 640 85 660 91C680 97 700 109 720 114C740 119 760 117 780 111C800 105 820 95 840 92C860 89 880 93 890 95L900 97L900 29L890 30C880 31 860 33 840 34C820 35 800 35 780 35C760 35 740 35 720 35C700 35 680 35 660 35C640 35 620 35 600 37C580 39 560 43 540 42C520 41 500 35 480 33C460 31 440 33 420 36C400 39 380 43 360 42C340 41 320 35 300 34C280 33 260 37 240 38C220 39 200 37 180 37C160 37 140 39 120 41C100 43 80 45 60 43C40 41 20 35 10 32L0 29Z" fill="#6d6d6d"></path><path d="M0 187L10 193C20 199 40 211 60 216C80 221 100 219 120 214C140 209 160 201 180 202C200 203 220 213 240 209C260 205 280 187 300 180C320 173 340 177 360 176C380 175 400 169 420 172C440 175 460 187 480 190C500 193 520 187 540 179C560 171 580 161 600 162C620 163 640 175 660 180C680 185 700 183 720 186C740 189 760 197 780 197C800 197 820 189 840 186C860 183 880 185 890 186L900 187L900 95L890 93C880 91 860 87 840 90C820 93 800 103 780 109C760 115 740 117 720 112C700 107 680 95 660 89C640 83 620 83 600 90C580 97 560 111 540 112C520 113 500 101 480 96C460 91 440 93 420 99C400 105 380 115 360 116C340 117 320 109 300 109C280 109 260 117 240 117C220 117 200 109 180 107C160 105 140 109 120 112C100 115 80 117 60 117C40 117 20 115 10 114L0 113Z" fill="#868686"></path><path d="M0 331L10 333C20 335 40 339 60 343C80 347 100 351 120 344C140 337 160 319 180 320C200 321 220 341 240 348C260 355 280 349 300 341C320 333 340 323 360 322C380 321 400 329 420 326C440 323 460 309 480 306C500 303 520 311 540 310C560 309 580 299 600 303C620 307 640 325 660 335C680 345 700 347 720 343C740 339 760 329 780 324C800 319 820 319 840 323C860 327 880 335 890 339L900 343L900 185L890 184C880 183 860 181 840 184C820 187 800 195 780 195C760 195 740 187 720 184C700 181 680 183 660 178C640 173 620 161 600 160C580 159 560 169 540 177C520 185 500 191 480 188C460 185 440 173 420 170C400 167 380 173 360 174C340 175 320 171 300 178C280 185 260 203 240 207C220 211 200 201 180 200C160 199 140 207 120 212C100 217 80 219 60 214C40 209 20 197 10 191L0 185Z" fill="#9b9b9b"></path><path d="M0 475L10 476C20 477 40 479 60 477C80 475 100 469 120 468C140 467 160 471 180 471C200 471 220 467 240 462C260 457 280 451 300 451C320 451 340 457 360 460C380 463 400 463 420 461C440 459 460 455 480 456C500 457 520 463 540 467C560 471 580 473 600 468C620 463 640 451 660 453C680 455 700 471 720 472C740 473 760 459 780 450C800 441 820 437 840 436C860 435 880 437 890 438L900 439L900 341L890 337C880 333 860 325 840 321C820 317 800 317 780 322C760 327 740 337 720 341C700 345 680 343 660 333C640 323 620 305 600 301C580 297 560 307 540 308C520 309 500 301 480 304C460 307 440 321 420 324C400 327 380 319 360 320C340 321 320 331 300 339C280 347 260 353 240 346C220 339 200 319 180 318C160 317 140 335 120 342C100 349 80 345 60 341C40 337 20 333 10 331L0 329Z" fill="#9b9b9b"></path><path d="M0 505L10 509C20 513 40 521 60 521C80 521 100 513 120 511C140 509 160 513 180 515C200 517 220 517 240 514C260 511 280 505 300 503C320 501 340 503 360 506C380 509 400 513 420 510C440 507 460 497 480 496C500 495 520 503 540 509C560 515 580 519 600 513C620 507 640 491 660 490C680 489 700 503 720 506C740 509 760 501 780 496C800 491 820 489 840 488C860 487 880 487 890 487L900 487L900 437L890 436C880 435 860 433 840 434C820 435 800 439 780 448C760 457 740 471 720 470C700 469 680 453 660 451C640 449 620 461 600 466C580 471 560 469 540 465C520 461 500 455 480 454C460 453 440 457 420 459C400 461 380 461 360 458C340 455 320 449 300 449C280 449 260 455 240 460C220 465 200 469 180 469C160 469 140 465 120 466C100 467 80 473 60 475C40 477 20 475 10 474L0 473Z" fill="#868686"></path><path d="M0 559L10 561C20 563 40 567 60 567C80 567 100 563 120 561C140 559 160 559 180 559C200 559 220 559 240 558C260 557 280 555 300 555C320 555 340 557 360 560C380 563 400 567 420 566C440 565 460 559 480 555C500 551 520 549 540 551C560 553 580 559 600 558C620 557 640 549 660 548C680 547 700 553 720 555C740 557 760 555 780 553C800 551 820 549 840 549C860 549 880 551 890 552L900 553L900 485L890 485C880 485 860 485 840 486C820 487 800 489 780 494C760 499 740 507 720 504C700 501 680 487 660 488C640 489 620 505 600 511C580 517 560 513 540 507C520 501 500 493 480 494C460 495 440 505 420 508C400 511 380 507 360 504C340 501 320 499 300 501C280 503 260 509 240 512C220 515 200 515 180 513C160 511 140 507 120 509C100 511 80 519 60 519C40 519 20 511 10 507L0 503Z" fill="#6d6d6d"></path><path d="M0 601L10 601C20 601 40 601 60 601C80 601 100 601 120 601C140 601 160 601 180 601C200 601 220 601 240 601C260 601 280 601 300 601C320 601 340 601 360 601C380 601 400 601 420 601C440 601 460 601 480 601C500 601 520 601 540 601C560 601 580 601 600 601C620 601 640 601 660 601C680 601 700 601 720 601C740 601 760 601 780 601C800 601 820 601 840 601C860 601 880 601 890 601L900 601L900 551L890 550C880 549 860 547 840 547C820 547 800 549 780 551C760 553 740 555 720 553C700 551 680 545 660 546C640 547 620 555 600 556C580 557 560 551 540 549C520 547 500 549 480 553C460 557 440 563 420 564C400 565 380 561 360 558C340 555 320 553 300 553C280 553 260 555 240 556C220 557 200 557 180 557C160 557 140 557 120 559C100 561 80 565 60 565C40 565 20 561 10 559L0 557Z" fill="#565656"></path></svg>