<svg id="visual" viewBox="0 0 900 600" width="900" height="600" xmlns="http://www.w3.org/2000/svg" xmlns:xlink="http://www.w3.org/1999/xlink" version="1.1"><path d="M0 103L56 103L56 31L113 31L113 43L169 43L169 109L225 109L225 61L281 61L281 97L338 97L338 85L394 85L394 115L450 115L450 67L506 67L506 61L563 61L563 115L619 115L619 85L675 85L675 115L731 115L731 91L788 91L788 115L844 115L844 91L900 91L900 97L900 0L900 0L844 0L844 0L788 0L788 0L731 0L731 0L675 0L675 0L619 0L619 0L563 0L563 0L506 0L506 0L450 0L450 0L394 0L394 0L338 0L338 0L281 0L281 0L225 0L225 0L169 0L169 0L113 0L113 0L56 0L56 0L0 0Z" fill="#ffffff"></path><path d="M0 175L56 175L56 73L113 73L113 121L169 121L169 217L225 217L225 115L281 115L281 211L338 211L338 127L394 127L394 235L450 235L450 169L506 169L506 169L563 169L563 211L619 211L619 211L675 211L675 229L731 229L731 127L788 127L788 211L844 211L844 163L900 163L900 211L900 95L900 89L844 89L844 113L788 113L788 89L731 89L731 113L675 113L675 83L619 83L619 113L563 113L563 59L506 59L506 65L450 65L450 113L394 113L394 83L338 83L338 95L281 95L281 59L225 59L225 107L169 107L169 41L113 41L113 29L56 29L56 101L0 101Z" fill="#b9b9b9"></path><path d="M0 325L56 325L56 229L113 229L113 217L169 217L169 325L225 325L225 289L281 289L281 259L338 259L338 271L394 271L394 361L450 361L450 307L506 307L506 247L563 247L563 301L619 301L619 307L675 307L675 361L731 361L731 217L788 217L788 349L844 349L844 283L900 283L900 289L900 209L900 161L844 161L844 209L788 209L788 125L731 125L731 227L675 227L675 209L619 209L619 209L563 209L563 167L506 167L506 167L450 167L450 233L394 233L394 125L338 125L338 209L281 209L281 113L225 113L225 215L169 215L169 119L113 119L113 71L56 71L56 173L0 173Z" fill="#777777"></path><path d="M0 493L56 493L56 469L113 469L113 313L169 313L169 481L225 481L225 517L281 517L281 337L338 337L338 427L394 427L394 541L450 541L450 397L506 397L506 427L563 427L563 433L619 433L619 517L675 517L675 433L731 433L731 451L788 451L788 493L844 493L844 523L900 523L900 451L900 287L900 281L844 281L844 347L788 347L788 215L731 215L731 359L675 359L675 305L619 305L619 299L563 299L563 245L506 245L506 305L450 305L450 359L394 359L394 269L338 269L338 257L281 257L281 287L225 287L225 323L169 323L169 215L113 215L113 227L56 227L56 323L0 323Z" fill="#3b3b3b"></path><path d="M0 601L56 601L56 601L113 601L113 601L169 601L169 601L225 601L225 601L281 601L281 601L338 601L338 601L394 601L394 601L450 601L450 601L506 601L506 601L563 601L563 601L619 601L619 601L675 601L675 601L731 601L731 601L788 601L788 601L844 601L844 601L900 601L900 601L900 449L900 521L844 521L844 491L788 491L788 449L731 449L731 431L675 431L675 515L619 515L619 431L563 431L563 425L506 425L506 395L450 395L450 539L394 539L394 425L338 425L338 335L281 335L281 515L225 515L225 479L169 479L169 311L113 311L113 467L56 467L56 491L0 491Z" fill="#000000"></path></svg>